<mxfile host="Electron" modified="2024-06-20T02:54:40.994Z" agent="Mozilla/5.0 (Macintosh; Intel Mac OS X 10_15_7) AppleWebKit/537.36 (KHTML, like Gecko) draw.io/24.5.3 Chrome/124.0.6367.207 Electron/30.0.6 Safari/537.36" etag="EnbipTdcpDHTowWXNU_8" version="24.5.3" type="device">
  <diagram id="UC15DFooYY76keewkeBm" name="Page-1">
    <mxGraphModel dx="420" dy="-9" grid="1" gridSize="10" guides="1" tooltips="1" connect="1" arrows="1" fold="1" page="1" pageScale="1" pageWidth="827" pageHeight="1169" math="0" shadow="0">
      <root>
        <mxCell id="0" />
        <mxCell id="1" parent="0" />
        <object label="Comparison of Classification Network" element="system" sensitive="False" id="2UaHHBbGYBg2TLlhPL6S-50">
          <mxCell style="swimlane;whiteSpace=wrap;html=1;fillColor=#f5f5f5;fontColor=#333333;strokeColor=#666666;startSize=30;" vertex="1" parent="1">
            <mxGeometry x="1671" y="1190" width="480" height="750" as="geometry" />
          </mxCell>
        </object>
        <object label="Credit Score Data" element="data" sensitive="False" id="2UaHHBbGYBg2TLlhPL6S-14">
          <mxCell style="rounded=0;whiteSpace=wrap;html=1;fillColor=#cdeb8b;strokeColor=#97D077;" vertex="1" parent="2UaHHBbGYBg2TLlhPL6S-50">
            <mxGeometry x="20" y="50" width="120" height="40" as="geometry" />
          </mxCell>
        </object>
        <object label="Data Cleaning" element="process" sensitive="False" id="2UaHHBbGYBg2TLlhPL6S-15">
          <mxCell style="rounded=1;whiteSpace=wrap;html=1;arcSize=50;fillColor=#f8cecc;strokeColor=#b85450;" vertex="1" parent="2UaHHBbGYBg2TLlhPL6S-50">
            <mxGeometry x="20" y="130" width="120" height="40" as="geometry" />
          </mxCell>
        </object>
        <object label="Encoded Data" element="data" sensitive="False" id="2UaHHBbGYBg2TLlhPL6S-16">
          <mxCell style="rounded=0;whiteSpace=wrap;html=1;fillColor=#cdeb8b;strokeColor=#97D077;" vertex="1" parent="2UaHHBbGYBg2TLlhPL6S-50">
            <mxGeometry x="20" y="210" width="120" height="40" as="geometry" />
          </mxCell>
        </object>
        <object label="Process:&lt;br&gt;Data Split" element="process" sensitive="False" id="2UaHHBbGYBg2TLlhPL6S-17">
          <mxCell style="rounded=1;whiteSpace=wrap;html=1;arcSize=50;fillColor=#f8cecc;strokeColor=#b85450;" vertex="1" parent="2UaHHBbGYBg2TLlhPL6S-50">
            <mxGeometry x="180" y="210" width="120" height="40" as="geometry" />
          </mxCell>
        </object>
        <object label="Encoded Training Data" element="data" sensitive="False" id="2UaHHBbGYBg2TLlhPL6S-18">
          <mxCell style="rounded=0;whiteSpace=wrap;html=1;fillColor=#cdeb8b;strokeColor=#97D077;" vertex="1" parent="2UaHHBbGYBg2TLlhPL6S-50">
            <mxGeometry x="340" y="210" width="120" height="40" as="geometry" />
          </mxCell>
        </object>
        <object label="Encoded Evaluation Data" element="data" sensitive="False" id="2UaHHBbGYBg2TLlhPL6S-19">
          <mxCell style="rounded=0;whiteSpace=wrap;html=1;fillColor=#cdeb8b;strokeColor=#97D077;" vertex="1" parent="2UaHHBbGYBg2TLlhPL6S-50">
            <mxGeometry x="180" y="290" width="120" height="40" as="geometry" />
          </mxCell>
        </object>
        <object label="ML Training" element="process" sensitive="False" id="2UaHHBbGYBg2TLlhPL6S-20">
          <mxCell style="rounded=1;whiteSpace=wrap;html=1;arcSize=50;fillColor=#e1d5e7;strokeColor=#9673a6;" vertex="1" parent="2UaHHBbGYBg2TLlhPL6S-50">
            <mxGeometry x="340" y="290" width="120" height="40" as="geometry" />
          </mxCell>
        </object>
        <object label="Multi-Label Classification Network 2" element="ml_model" sensitive="False" id="2UaHHBbGYBg2TLlhPL6S-22">
          <mxCell style="shape=hexagon;perimeter=hexagonPerimeter2;whiteSpace=wrap;html=1;fixedSize=1;fillColor=#b1ddf0;strokeColor=#10739e;" vertex="1" parent="2UaHHBbGYBg2TLlhPL6S-50">
            <mxGeometry x="340" y="370" width="120" height="40" as="geometry" />
          </mxCell>
        </object>
        <object label="Multi-Label Classification Network 1" element="ml_model" sensitive="False" id="2UaHHBbGYBg2TLlhPL6S-23">
          <mxCell style="shape=hexagon;perimeter=hexagonPerimeter2;whiteSpace=wrap;html=1;fixedSize=1;fillColor=#b1ddf0;strokeColor=#10739e;" vertex="1" parent="2UaHHBbGYBg2TLlhPL6S-50">
            <mxGeometry x="180" y="370" width="120" height="40" as="geometry" />
          </mxCell>
        </object>
        <object label="Classification Results for Network 1" element="data" sensitive="False" id="2UaHHBbGYBg2TLlhPL6S-24">
          <mxCell style="rounded=0;whiteSpace=wrap;html=1;fillColor=#cdeb8b;strokeColor=#97D077;" vertex="1" parent="2UaHHBbGYBg2TLlhPL6S-50">
            <mxGeometry x="180" y="530" width="120" height="40" as="geometry" />
          </mxCell>
        </object>
        <object label="Classification Results for Network 2" element="data" sensitive="False" id="2UaHHBbGYBg2TLlhPL6S-25">
          <mxCell style="rounded=0;whiteSpace=wrap;html=1;fillColor=#cdeb8b;strokeColor=#97D077;" vertex="1" parent="2UaHHBbGYBg2TLlhPL6S-50">
            <mxGeometry x="340" y="530" width="120" height="40" as="geometry" />
          </mxCell>
        </object>
        <object label="Process:&lt;br&gt;Result Comparison" element="process" sensitive="False" id="2UaHHBbGYBg2TLlhPL6S-26">
          <mxCell style="rounded=1;whiteSpace=wrap;html=1;arcSize=50;fillColor=#f8cecc;strokeColor=#b85450;" vertex="1" parent="2UaHHBbGYBg2TLlhPL6S-50">
            <mxGeometry x="260" y="610" width="120" height="40" as="geometry" />
          </mxCell>
        </object>
        <object label="" element="worfklow_connector" sensitive="False" id="2UaHHBbGYBg2TLlhPL6S-27">
          <mxCell style="endArrow=classic;html=1;rounded=0;ignoreEdge=1;" edge="1" parent="2UaHHBbGYBg2TLlhPL6S-50" source="2UaHHBbGYBg2TLlhPL6S-14" target="2UaHHBbGYBg2TLlhPL6S-15">
            <mxGeometry width="50" height="50" relative="1" as="geometry">
              <mxPoint x="-170" y="-80" as="sourcePoint" />
              <mxPoint x="-130" y="-80" as="targetPoint" />
            </mxGeometry>
          </mxCell>
        </object>
        <object label="" element="worfklow_connector" sensitive="False" id="2UaHHBbGYBg2TLlhPL6S-28">
          <mxCell style="endArrow=classic;html=1;rounded=0;ignoreEdge=1;" edge="1" parent="2UaHHBbGYBg2TLlhPL6S-50" source="2UaHHBbGYBg2TLlhPL6S-15" target="2UaHHBbGYBg2TLlhPL6S-16">
            <mxGeometry width="50" height="50" relative="1" as="geometry">
              <mxPoint x="-160" y="-70" as="sourcePoint" />
              <mxPoint x="-120" y="-70" as="targetPoint" />
            </mxGeometry>
          </mxCell>
        </object>
        <object label="" element="worfklow_connector" sensitive="False" id="2UaHHBbGYBg2TLlhPL6S-29">
          <mxCell style="endArrow=classic;html=1;rounded=0;ignoreEdge=1;" edge="1" parent="2UaHHBbGYBg2TLlhPL6S-50" source="2UaHHBbGYBg2TLlhPL6S-16" target="2UaHHBbGYBg2TLlhPL6S-17">
            <mxGeometry width="50" height="50" relative="1" as="geometry">
              <mxPoint x="-10" y="240" as="sourcePoint" />
              <mxPoint x="30" y="240" as="targetPoint" />
            </mxGeometry>
          </mxCell>
        </object>
        <object label="" element="worfklow_connector" sensitive="False" id="2UaHHBbGYBg2TLlhPL6S-30">
          <mxCell style="endArrow=classic;html=1;rounded=0;ignoreEdge=1;" edge="1" parent="2UaHHBbGYBg2TLlhPL6S-50" source="2UaHHBbGYBg2TLlhPL6S-17" target="2UaHHBbGYBg2TLlhPL6S-18">
            <mxGeometry width="50" height="50" relative="1" as="geometry">
              <mxPoint x="160" y="170" as="sourcePoint" />
              <mxPoint x="200" y="170" as="targetPoint" />
            </mxGeometry>
          </mxCell>
        </object>
        <object label="" element="worfklow_connector" sensitive="False" id="2UaHHBbGYBg2TLlhPL6S-31">
          <mxCell style="endArrow=classic;html=1;rounded=0;ignoreEdge=1;" edge="1" parent="2UaHHBbGYBg2TLlhPL6S-50" source="2UaHHBbGYBg2TLlhPL6S-17" target="2UaHHBbGYBg2TLlhPL6S-19">
            <mxGeometry width="50" height="50" relative="1" as="geometry">
              <mxPoint x="310" y="240" as="sourcePoint" />
              <mxPoint x="350" y="240" as="targetPoint" />
            </mxGeometry>
          </mxCell>
        </object>
        <object label="" element="worfklow_connector" sensitive="False" id="2UaHHBbGYBg2TLlhPL6S-32">
          <mxCell style="endArrow=classic;html=1;rounded=0;ignoreEdge=1;" edge="1" parent="2UaHHBbGYBg2TLlhPL6S-50" source="2UaHHBbGYBg2TLlhPL6S-18" target="2UaHHBbGYBg2TLlhPL6S-20">
            <mxGeometry width="50" height="50" relative="1" as="geometry">
              <mxPoint x="310" y="225" as="sourcePoint" />
              <mxPoint x="350" y="215" as="targetPoint" />
            </mxGeometry>
          </mxCell>
        </object>
        <object label="" element="worfklow_connector" sensitive="False" id="2UaHHBbGYBg2TLlhPL6S-34">
          <mxCell style="endArrow=classic;html=1;rounded=0;ignoreEdge=1;" edge="1" parent="2UaHHBbGYBg2TLlhPL6S-50" source="2UaHHBbGYBg2TLlhPL6S-19" target="2UaHHBbGYBg2TLlhPL6S-22">
            <mxGeometry width="50" height="50" relative="1" as="geometry">
              <mxPoint x="470" y="200" as="sourcePoint" />
              <mxPoint x="511" y="200" as="targetPoint" />
            </mxGeometry>
          </mxCell>
        </object>
        <object label="" element="worfklow_connector" sensitive="False" id="2UaHHBbGYBg2TLlhPL6S-35">
          <mxCell style="endArrow=classic;html=1;rounded=0;ignoreEdge=1;jumpStyle=arc;" edge="1" parent="2UaHHBbGYBg2TLlhPL6S-50" source="2UaHHBbGYBg2TLlhPL6S-20" target="2UaHHBbGYBg2TLlhPL6S-23">
            <mxGeometry width="50" height="50" relative="1" as="geometry">
              <mxPoint x="470" y="280" as="sourcePoint" />
              <mxPoint x="670" y="280" as="targetPoint" />
            </mxGeometry>
          </mxCell>
        </object>
        <object label="" element="worfklow_connector" sensitive="False" id="2UaHHBbGYBg2TLlhPL6S-36">
          <mxCell style="endArrow=classic;html=1;rounded=0;ignoreEdge=1;" edge="1" parent="2UaHHBbGYBg2TLlhPL6S-50" source="2UaHHBbGYBg2TLlhPL6S-20" target="2UaHHBbGYBg2TLlhPL6S-22">
            <mxGeometry width="50" height="50" relative="1" as="geometry">
              <mxPoint x="571" y="220" as="sourcePoint" />
              <mxPoint x="571" y="340" as="targetPoint" />
            </mxGeometry>
          </mxCell>
        </object>
        <object label="ML Inference" element="process" sensitive="False" id="2UaHHBbGYBg2TLlhPL6S-37">
          <mxCell style="rounded=1;whiteSpace=wrap;html=1;arcSize=50;fillColor=#d5e8d4;strokeColor=#82b366;" vertex="1" parent="2UaHHBbGYBg2TLlhPL6S-50">
            <mxGeometry x="340" y="450" width="120" height="40" as="geometry" />
          </mxCell>
        </object>
        <object label="ML Inference" element="process" sensitive="False" id="2UaHHBbGYBg2TLlhPL6S-38">
          <mxCell style="rounded=1;whiteSpace=wrap;html=1;arcSize=50;fillColor=#d5e8d4;strokeColor=#82b366;" vertex="1" parent="2UaHHBbGYBg2TLlhPL6S-50">
            <mxGeometry x="180" y="450" width="120" height="40" as="geometry" />
          </mxCell>
        </object>
        <object label="Comparison Result" element="data" sensitive="False" id="2UaHHBbGYBg2TLlhPL6S-39">
          <mxCell style="rounded=0;whiteSpace=wrap;html=1;fillColor=#cdeb8b;strokeColor=#97D077;" vertex="1" parent="2UaHHBbGYBg2TLlhPL6S-50">
            <mxGeometry x="260" y="690" width="120" height="40" as="geometry" />
          </mxCell>
        </object>
        <object label="" element="worfklow_connector" sensitive="False" id="2UaHHBbGYBg2TLlhPL6S-40">
          <mxCell style="endArrow=classic;html=1;rounded=0;ignoreEdge=1;" edge="1" parent="2UaHHBbGYBg2TLlhPL6S-50" source="2UaHHBbGYBg2TLlhPL6S-23" target="2UaHHBbGYBg2TLlhPL6S-38">
            <mxGeometry width="50" height="50" relative="1" as="geometry">
              <mxPoint x="470" y="200" as="sourcePoint" />
              <mxPoint x="511" y="200" as="targetPoint" />
            </mxGeometry>
          </mxCell>
        </object>
        <object label="" element="worfklow_connector" sensitive="False" id="2UaHHBbGYBg2TLlhPL6S-42">
          <mxCell style="endArrow=classic;html=1;rounded=0;ignoreEdge=1;" edge="1" parent="2UaHHBbGYBg2TLlhPL6S-50" source="2UaHHBbGYBg2TLlhPL6S-22" target="2UaHHBbGYBg2TLlhPL6S-37">
            <mxGeometry width="50" height="50" relative="1" as="geometry">
              <mxPoint x="631" y="360" as="sourcePoint" />
              <mxPoint x="670" y="360" as="targetPoint" />
            </mxGeometry>
          </mxCell>
        </object>
        <object label="" element="worfklow_connector" sensitive="False" id="2UaHHBbGYBg2TLlhPL6S-43">
          <mxCell style="endArrow=classic;html=1;rounded=0;ignoreEdge=1;" edge="1" parent="2UaHHBbGYBg2TLlhPL6S-50" source="2UaHHBbGYBg2TLlhPL6S-19" target="2UaHHBbGYBg2TLlhPL6S-23">
            <mxGeometry width="50" height="50" relative="1" as="geometry">
              <mxPoint x="470" y="280" as="sourcePoint" />
              <mxPoint x="670" y="280" as="targetPoint" />
            </mxGeometry>
          </mxCell>
        </object>
        <object label="" element="worfklow_connector" sensitive="False" id="2UaHHBbGYBg2TLlhPL6S-45">
          <mxCell style="endArrow=classic;html=1;rounded=0;ignoreEdge=1;" edge="1" parent="2UaHHBbGYBg2TLlhPL6S-50" source="2UaHHBbGYBg2TLlhPL6S-37" target="2UaHHBbGYBg2TLlhPL6S-25">
            <mxGeometry width="50" height="50" relative="1" as="geometry">
              <mxPoint x="410" y="470" as="sourcePoint" />
              <mxPoint x="410" y="460" as="targetPoint" />
            </mxGeometry>
          </mxCell>
        </object>
        <object label="" element="worfklow_connector" sensitive="False" id="2UaHHBbGYBg2TLlhPL6S-46">
          <mxCell style="endArrow=classic;html=1;rounded=0;ignoreEdge=1;edgeStyle=orthogonalEdgeStyle;entryX=1;entryY=0.5;entryDx=0;entryDy=0;" edge="1" parent="2UaHHBbGYBg2TLlhPL6S-50" source="2UaHHBbGYBg2TLlhPL6S-25" target="2UaHHBbGYBg2TLlhPL6S-26">
            <mxGeometry width="50" height="50" relative="1" as="geometry">
              <mxPoint x="420" y="430" as="sourcePoint" />
              <mxPoint x="420" y="470" as="targetPoint" />
            </mxGeometry>
          </mxCell>
        </object>
        <object label="" element="worfklow_connector" sensitive="False" id="2UaHHBbGYBg2TLlhPL6S-47">
          <mxCell style="endArrow=classic;html=1;rounded=0;ignoreEdge=1;" edge="1" parent="2UaHHBbGYBg2TLlhPL6S-50" source="2UaHHBbGYBg2TLlhPL6S-38" target="2UaHHBbGYBg2TLlhPL6S-24">
            <mxGeometry width="50" height="50" relative="1" as="geometry">
              <mxPoint x="430" y="440" as="sourcePoint" />
              <mxPoint x="430" y="480" as="targetPoint" />
            </mxGeometry>
          </mxCell>
        </object>
        <object label="" element="worfklow_connector" sensitive="False" id="2UaHHBbGYBg2TLlhPL6S-48">
          <mxCell style="endArrow=classic;html=1;rounded=0;ignoreEdge=1;edgeStyle=orthogonalEdgeStyle;entryX=0;entryY=0.5;entryDx=0;entryDy=0;" edge="1" parent="2UaHHBbGYBg2TLlhPL6S-50" source="2UaHHBbGYBg2TLlhPL6S-24" target="2UaHHBbGYBg2TLlhPL6S-26">
            <mxGeometry width="50" height="50" relative="1" as="geometry">
              <mxPoint x="440" y="450" as="sourcePoint" />
              <mxPoint x="440" y="490" as="targetPoint" />
            </mxGeometry>
          </mxCell>
        </object>
        <object label="" element="worfklow_connector" sensitive="False" id="2UaHHBbGYBg2TLlhPL6S-49">
          <mxCell style="endArrow=classic;html=1;rounded=0;ignoreEdge=1;" edge="1" parent="2UaHHBbGYBg2TLlhPL6S-50" source="2UaHHBbGYBg2TLlhPL6S-26" target="2UaHHBbGYBg2TLlhPL6S-39">
            <mxGeometry width="50" height="50" relative="1" as="geometry">
              <mxPoint x="450" y="460" as="sourcePoint" />
              <mxPoint x="450" y="500" as="targetPoint" />
            </mxGeometry>
          </mxCell>
        </object>
        <object label="&lt;b&gt;&lt;i&gt;Metrics:&amp;nbsp;&lt;/i&gt;&lt;/b&gt;&lt;div&gt;Prediction, Accuracy, Precision, Recall&lt;/div&gt;" element="note" sensitive="False" id="2UaHHBbGYBg2TLlhPL6S-51">
          <mxCell style="shape=note;whiteSpace=wrap;html=1;backgroundOutline=1;darkOpacity=0.05;" vertex="1" parent="1">
            <mxGeometry x="2174" y="1880" width="120" height="120" as="geometry" />
          </mxCell>
        </object>
        <object label="" element="dotted_connector" sensitive="False" id="2UaHHBbGYBg2TLlhPL6S-52">
          <mxCell style="endArrow=none;dashed=1;html=1;dashPattern=1 3;strokeWidth=2;rounded=0;" edge="1" parent="1" source="2UaHHBbGYBg2TLlhPL6S-26" target="2UaHHBbGYBg2TLlhPL6S-51">
            <mxGeometry width="50" height="50" relative="1" as="geometry">
              <mxPoint x="2874" y="1770" as="sourcePoint" />
              <mxPoint x="2954" y="1690" as="targetPoint" />
            </mxGeometry>
          </mxCell>
        </object>
        <object label="Network 2 Structure" element="system" sensitive="False" id="2UaHHBbGYBg2TLlhPL6S-71">
          <mxCell style="swimlane;whiteSpace=wrap;html=1;fillColor=#f5f5f5;fontColor=#333333;strokeColor=#666666;startSize=40;shadow=1;" vertex="1" parent="1">
            <mxGeometry x="2174" y="1500" width="290" height="330" as="geometry" />
          </mxCell>
        </object>
        <object label="Input Layer" element="ml_model" sensitive="False" id="f95AXU4hk8qBecIr_BUM-76">
          <mxCell style="shape=hexagon;perimeter=hexagonPerimeter2;whiteSpace=wrap;html=1;fixedSize=1;fillColor=#b1ddf0;strokeColor=#10739e;" vertex="1" parent="2UaHHBbGYBg2TLlhPL6S-71">
            <mxGeometry x="10" y="60" width="120" height="40" as="geometry" />
          </mxCell>
        </object>
        <object label="Hidden Layer 1" element="ml_model" sensitive="False" id="2UaHHBbGYBg2TLlhPL6S-55">
          <mxCell style="shape=hexagon;perimeter=hexagonPerimeter2;whiteSpace=wrap;html=1;fixedSize=1;fillColor=#b1ddf0;strokeColor=#10739e;" vertex="1" parent="2UaHHBbGYBg2TLlhPL6S-71">
            <mxGeometry x="10" y="130" width="120" height="40" as="geometry" />
          </mxCell>
        </object>
        <object label="Hidden Layer 2" element="ml_model" sensitive="False" id="2UaHHBbGYBg2TLlhPL6S-56">
          <mxCell style="shape=hexagon;perimeter=hexagonPerimeter2;whiteSpace=wrap;html=1;fixedSize=1;fillColor=#b1ddf0;strokeColor=#10739e;" vertex="1" parent="2UaHHBbGYBg2TLlhPL6S-71">
            <mxGeometry x="10" y="200" width="120" height="40" as="geometry" />
          </mxCell>
        </object>
        <object label="Output Layer" element="ml_model" sensitive="False" id="2UaHHBbGYBg2TLlhPL6S-57">
          <mxCell style="shape=hexagon;perimeter=hexagonPerimeter2;whiteSpace=wrap;html=1;fixedSize=1;fillColor=#b1ddf0;strokeColor=#10739e;" vertex="1" parent="2UaHHBbGYBg2TLlhPL6S-71">
            <mxGeometry x="10" y="270" width="120" height="40" as="geometry" />
          </mxCell>
        </object>
        <object label="" element="info_attachement_connector" sensitive="False" id="2UaHHBbGYBg2TLlhPL6S-59">
          <mxCell style="endArrow=classic;html=1;rounded=0;strokeColor=#6c8ebf;fillColor=#dae8fc;" edge="1" parent="2UaHHBbGYBg2TLlhPL6S-71" source="f95AXU4hk8qBecIr_BUM-76" target="2UaHHBbGYBg2TLlhPL6S-55">
            <mxGeometry width="50" height="50" relative="1" as="geometry">
              <mxPoint x="420" y="-120" as="sourcePoint" />
              <mxPoint x="500" y="-200" as="targetPoint" />
            </mxGeometry>
          </mxCell>
        </object>
        <object label="" element="info_attachement_connector" sensitive="False" id="2UaHHBbGYBg2TLlhPL6S-61">
          <mxCell style="endArrow=classic;html=1;rounded=0;strokeColor=#6c8ebf;fillColor=#dae8fc;entryX=0.5;entryY=0;entryDx=0;entryDy=0;" edge="1" parent="2UaHHBbGYBg2TLlhPL6S-71" source="2UaHHBbGYBg2TLlhPL6S-55" target="2UaHHBbGYBg2TLlhPL6S-56">
            <mxGeometry width="50" height="50" relative="1" as="geometry">
              <mxPoint x="80" y="110" as="sourcePoint" />
              <mxPoint x="80" y="140" as="targetPoint" />
            </mxGeometry>
          </mxCell>
        </object>
        <object label="" element="info_attachement_connector" sensitive="False" id="2UaHHBbGYBg2TLlhPL6S-62">
          <mxCell style="endArrow=classic;html=1;rounded=0;strokeColor=#6c8ebf;fillColor=#dae8fc;" edge="1" parent="2UaHHBbGYBg2TLlhPL6S-71" source="2UaHHBbGYBg2TLlhPL6S-56" target="2UaHHBbGYBg2TLlhPL6S-57">
            <mxGeometry width="50" height="50" relative="1" as="geometry">
              <mxPoint x="80" y="180" as="sourcePoint" />
              <mxPoint x="80" y="210" as="targetPoint" />
            </mxGeometry>
          </mxCell>
        </object>
        <object label="Parameters" element="list" sensitive="False" id="2UaHHBbGYBg2TLlhPL6S-63">
          <mxCell style="swimlane;fontStyle=0;childLayout=stackLayout;horizontal=1;startSize=15;horizontalStack=0;resizeParent=1;resizeParentMax=0;resizeLast=0;collapsible=1;marginBottom=0;whiteSpace=wrap;html=1;shadow=1;" vertex="1" parent="2UaHHBbGYBg2TLlhPL6S-71">
            <mxGeometry x="160" y="60" width="120" height="75" as="geometry" />
          </mxCell>
        </object>
        <mxCell id="2UaHHBbGYBg2TLlhPL6S-64" value="hidden_units: 50" style="text;strokeColor=none;fillColor=none;align=left;verticalAlign=middle;spacingLeft=4;spacingRight=4;overflow=hidden;points=[[0,0.5],[1,0.5]];portConstraint=eastwest;rotatable=0;whiteSpace=wrap;html=1;" vertex="1" parent="2UaHHBbGYBg2TLlhPL6S-63">
          <mxGeometry y="15" width="120" height="30" as="geometry" />
        </mxCell>
        <mxCell id="2UaHHBbGYBg2TLlhPL6S-65" value="activation_function: ReLU" style="text;strokeColor=none;fillColor=none;align=left;verticalAlign=middle;spacingLeft=4;spacingRight=4;overflow=hidden;points=[[0,0.5],[1,0.5]];portConstraint=eastwest;rotatable=0;whiteSpace=wrap;html=1;" vertex="1" parent="2UaHHBbGYBg2TLlhPL6S-63">
          <mxGeometry y="45" width="120" height="30" as="geometry" />
        </mxCell>
        <object label="Parameters" element="list" sensitive="False" id="2UaHHBbGYBg2TLlhPL6S-66">
          <mxCell style="swimlane;fontStyle=0;childLayout=stackLayout;horizontal=1;startSize=15;horizontalStack=0;resizeParent=1;resizeParentMax=0;resizeLast=0;collapsible=1;marginBottom=0;whiteSpace=wrap;html=1;shadow=1;" vertex="1" parent="2UaHHBbGYBg2TLlhPL6S-71">
            <mxGeometry x="160" y="182.5" width="120" height="75" as="geometry" />
          </mxCell>
        </object>
        <mxCell id="2UaHHBbGYBg2TLlhPL6S-67" value="hidden_units: 25" style="text;strokeColor=none;fillColor=none;align=left;verticalAlign=middle;spacingLeft=4;spacingRight=4;overflow=hidden;points=[[0,0.5],[1,0.5]];portConstraint=eastwest;rotatable=0;whiteSpace=wrap;html=1;" vertex="1" parent="2UaHHBbGYBg2TLlhPL6S-66">
          <mxGeometry y="15" width="120" height="30" as="geometry" />
        </mxCell>
        <mxCell id="2UaHHBbGYBg2TLlhPL6S-68" value="activation_function: Softmax" style="text;strokeColor=none;fillColor=none;align=left;verticalAlign=middle;spacingLeft=4;spacingRight=4;overflow=hidden;points=[[0,0.5],[1,0.5]];portConstraint=eastwest;rotatable=0;whiteSpace=wrap;html=1;" vertex="1" parent="2UaHHBbGYBg2TLlhPL6S-66">
          <mxGeometry y="45" width="120" height="30" as="geometry" />
        </mxCell>
        <object label="" element="dotted_connector" sensitive="False" id="2UaHHBbGYBg2TLlhPL6S-69">
          <mxCell style="endArrow=none;dashed=1;html=1;dashPattern=1 3;strokeWidth=2;rounded=0;" edge="1" parent="2UaHHBbGYBg2TLlhPL6S-71" source="2UaHHBbGYBg2TLlhPL6S-55" target="2UaHHBbGYBg2TLlhPL6S-63">
            <mxGeometry width="50" height="50" relative="1" as="geometry">
              <mxPoint x="830" y="462" as="sourcePoint" />
              <mxPoint x="960" y="488" as="targetPoint" />
            </mxGeometry>
          </mxCell>
        </object>
        <object label="" element="dotted_connector" sensitive="False" id="2UaHHBbGYBg2TLlhPL6S-70">
          <mxCell style="endArrow=none;dashed=1;html=1;dashPattern=1 3;strokeWidth=2;rounded=0;" edge="1" parent="2UaHHBbGYBg2TLlhPL6S-71" source="2UaHHBbGYBg2TLlhPL6S-56" target="2UaHHBbGYBg2TLlhPL6S-66">
            <mxGeometry width="50" height="50" relative="1" as="geometry">
              <mxPoint x="840" y="472" as="sourcePoint" />
              <mxPoint x="970" y="498" as="targetPoint" />
            </mxGeometry>
          </mxCell>
        </object>
        <object label="" element="info_attachement_connector" sensitive="False" id="2UaHHBbGYBg2TLlhPL6S-73">
          <mxCell style="endArrow=classic;html=1;rounded=0;strokeColor=#6c8ebf;fillColor=#dae8fc;" edge="1" parent="1" source="2UaHHBbGYBg2TLlhPL6S-22" target="2UaHHBbGYBg2TLlhPL6S-71">
            <mxGeometry width="50" height="50" relative="1" as="geometry">
              <mxPoint x="2204" y="1800" as="sourcePoint" />
              <mxPoint x="2284" y="1720" as="targetPoint" />
            </mxGeometry>
          </mxCell>
        </object>
        <object label="BEAM Library - Simplified" element="legend" sensitive="False" id="AXbqkbOZu55R54TtDFz9-1">
          <mxCell style="swimlane;whiteSpace=wrap;html=1;fillColor=#647687;strokeColor=#314354;fontColor=#ffffff;" vertex="1" collapsed="1" parent="1">
            <mxGeometry x="1920" y="2030" width="180" height="30" as="geometry">
              <mxRectangle x="2080" y="1400" width="650" height="580" as="alternateBounds" />
            </mxGeometry>
          </mxCell>
        </object>
        <object label="Annotation Elements" element="system" sensitive="False" id="AXbqkbOZu55R54TtDFz9-2">
          <mxCell style="swimlane;whiteSpace=wrap;html=1;fillColor=#f5f5f5;fontColor=#333333;strokeColor=#666666;startSize=30;" vertex="1" parent="AXbqkbOZu55R54TtDFz9-1">
            <mxGeometry x="20" y="370" width="610" height="190" as="geometry">
              <mxRectangle x="20" y="300" width="150" height="30" as="alternateBounds" />
            </mxGeometry>
          </mxCell>
        </object>
        <object label="List" element="list" sensitive="False" id="AXbqkbOZu55R54TtDFz9-3">
          <mxCell style="swimlane;fontStyle=0;childLayout=stackLayout;horizontal=1;startSize=30;horizontalStack=0;resizeParent=1;resizeParentMax=0;resizeLast=0;collapsible=1;marginBottom=0;whiteSpace=wrap;html=1;" vertex="1" parent="AXbqkbOZu55R54TtDFz9-2">
            <mxGeometry x="170" y="50" width="120" height="120" as="geometry" />
          </mxCell>
        </object>
        <mxCell id="AXbqkbOZu55R54TtDFz9-4" value="Item 1" style="text;strokeColor=none;fillColor=none;align=left;verticalAlign=middle;spacingLeft=4;spacingRight=4;overflow=hidden;points=[[0,0.5],[1,0.5]];portConstraint=eastwest;rotatable=0;whiteSpace=wrap;html=1;" vertex="1" parent="AXbqkbOZu55R54TtDFz9-3">
          <mxGeometry y="30" width="120" height="30" as="geometry" />
        </mxCell>
        <mxCell id="AXbqkbOZu55R54TtDFz9-5" value="Item 2" style="text;strokeColor=none;fillColor=none;align=left;verticalAlign=middle;spacingLeft=4;spacingRight=4;overflow=hidden;points=[[0,0.5],[1,0.5]];portConstraint=eastwest;rotatable=0;whiteSpace=wrap;html=1;" vertex="1" parent="AXbqkbOZu55R54TtDFz9-3">
          <mxGeometry y="60" width="120" height="30" as="geometry" />
        </mxCell>
        <mxCell id="AXbqkbOZu55R54TtDFz9-6" value="Item 2" style="text;strokeColor=none;fillColor=none;align=left;verticalAlign=middle;spacingLeft=4;spacingRight=4;overflow=hidden;points=[[0,0.5],[1,0.5]];portConstraint=eastwest;rotatable=0;whiteSpace=wrap;html=1;" vertex="1" parent="AXbqkbOZu55R54TtDFz9-3">
          <mxGeometry y="90" width="120" height="30" as="geometry" />
        </mxCell>
        <object label="Note" element="note" sensitive="False" id="AXbqkbOZu55R54TtDFz9-7">
          <mxCell style="shape=note;whiteSpace=wrap;html=1;backgroundOutline=1;darkOpacity=0.05;" vertex="1" parent="AXbqkbOZu55R54TtDFz9-2">
            <mxGeometry x="20" y="50" width="120" height="120" as="geometry" />
          </mxCell>
        </object>
        <object label="" element="info_attachement_connector" sensitive="False" id="AXbqkbOZu55R54TtDFz9-8">
          <mxCell style="endArrow=classic;html=1;rounded=0;strokeColor=#6c8ebf;fillColor=#dae8fc;" edge="1" parent="AXbqkbOZu55R54TtDFz9-2">
            <mxGeometry width="50" height="50" relative="1" as="geometry">
              <mxPoint x="350" y="150" as="sourcePoint" />
              <mxPoint x="430" y="70" as="targetPoint" />
            </mxGeometry>
          </mxCell>
        </object>
        <object label="" element="dotted_connector" sensitive="False" id="AXbqkbOZu55R54TtDFz9-9">
          <mxCell style="endArrow=none;dashed=1;html=1;dashPattern=1 3;strokeWidth=2;rounded=0;" edge="1" parent="AXbqkbOZu55R54TtDFz9-2">
            <mxGeometry width="50" height="50" relative="1" as="geometry">
              <mxPoint x="490" y="150" as="sourcePoint" />
              <mxPoint x="570" y="70" as="targetPoint" />
            </mxGeometry>
          </mxCell>
        </object>
        <object label="Core Elements" element="system" sensitive="False" id="AXbqkbOZu55R54TtDFz9-10">
          <mxCell style="swimlane;whiteSpace=wrap;html=1;fillColor=#f5f5f5;fontColor=#333333;strokeColor=#666666;startSize=30;" vertex="1" parent="AXbqkbOZu55R54TtDFz9-1">
            <mxGeometry x="20" y="40" width="610" height="310" as="geometry">
              <mxRectangle x="20" y="300" width="150" height="30" as="alternateBounds" />
            </mxGeometry>
          </mxCell>
        </object>
        <object label="Data" element="data" sensitive="False" id="AXbqkbOZu55R54TtDFz9-11">
          <mxCell style="rounded=0;whiteSpace=wrap;html=1;fillColor=#cdeb8b;strokeColor=#97D077;" vertex="1" parent="AXbqkbOZu55R54TtDFz9-10">
            <mxGeometry x="20" y="50" width="120" height="40" as="geometry" />
          </mxCell>
        </object>
        <object label="" element="worfklow_connector" sensitive="False" id="AXbqkbOZu55R54TtDFz9-12">
          <mxCell style="endArrow=classic;html=1;rounded=0;ignoreEdge=1;" edge="1" parent="AXbqkbOZu55R54TtDFz9-10">
            <mxGeometry width="50" height="50" relative="1" as="geometry">
              <mxPoint x="190" y="274" as="sourcePoint" />
              <mxPoint x="290" y="190" as="targetPoint" />
            </mxGeometry>
          </mxCell>
        </object>
        <object label="System Container" element="system" sensitive="False" id="AXbqkbOZu55R54TtDFz9-13">
          <mxCell style="swimlane;whiteSpace=wrap;html=1;fillColor=#f5f5f5;fontColor=#333333;strokeColor=#666666;startSize=30;" vertex="1" parent="AXbqkbOZu55R54TtDFz9-10">
            <mxGeometry x="20" y="170" width="120" height="120" as="geometry" />
          </mxCell>
        </object>
        <object label="ML Model" element="ml_model" sensitive="False" id="AXbqkbOZu55R54TtDFz9-14">
          <mxCell style="shape=hexagon;perimeter=hexagonPerimeter2;whiteSpace=wrap;html=1;fixedSize=1;fillColor=#b1ddf0;strokeColor=#10739e;" vertex="1" parent="AXbqkbOZu55R54TtDFz9-10">
            <mxGeometry x="20" y="110" width="120" height="40" as="geometry" />
          </mxCell>
        </object>
        <object label="ML Training" element="process" sensitive="False" id="AXbqkbOZu55R54TtDFz9-15">
          <mxCell style="rounded=1;whiteSpace=wrap;html=1;arcSize=50;fillColor=#e1d5e7;strokeColor=#9673a6;" vertex="1" parent="AXbqkbOZu55R54TtDFz9-10">
            <mxGeometry x="170" y="110" width="120" height="40" as="geometry" />
          </mxCell>
        </object>
        <object label="ML Inference" element="process" sensitive="False" id="AXbqkbOZu55R54TtDFz9-16">
          <mxCell style="rounded=1;whiteSpace=wrap;html=1;arcSize=50;fillColor=#d5e8d4;strokeColor=#82b366;" vertex="1" parent="AXbqkbOZu55R54TtDFz9-10">
            <mxGeometry x="170" y="50" width="120" height="40" as="geometry" />
          </mxCell>
        </object>
        <object label="Data Preparation" element="process" sensitive="False" id="AXbqkbOZu55R54TtDFz9-17">
          <mxCell style="rounded=1;whiteSpace=wrap;html=1;arcSize=50;fillColor=#f8cecc;strokeColor=#b85450;" vertex="1" parent="AXbqkbOZu55R54TtDFz9-10">
            <mxGeometry x="320" y="50" width="120" height="40" as="geometry" />
          </mxCell>
        </object>
        <object label="Data Analysis" element="process" sensitive="False" id="AXbqkbOZu55R54TtDFz9-18">
          <mxCell style="rounded=1;whiteSpace=wrap;html=1;arcSize=50;fillColor=#f8cecc;strokeColor=#b85450;" vertex="1" parent="AXbqkbOZu55R54TtDFz9-10">
            <mxGeometry x="320" y="110" width="120" height="40" as="geometry" />
          </mxCell>
        </object>
        <object label="Data Cleaning" element="process" sensitive="False" id="AXbqkbOZu55R54TtDFz9-19">
          <mxCell style="rounded=1;whiteSpace=wrap;html=1;arcSize=50;fillColor=#f8cecc;strokeColor=#b85450;" vertex="1" parent="AXbqkbOZu55R54TtDFz9-10">
            <mxGeometry x="320" y="170" width="120" height="40" as="geometry" />
          </mxCell>
        </object>
        <object label="Data Movement" element="process" sensitive="False" id="AXbqkbOZu55R54TtDFz9-20">
          <mxCell style="rounded=1;whiteSpace=wrap;html=1;arcSize=50;fillColor=#f8cecc;strokeColor=#b85450;" vertex="1" parent="AXbqkbOZu55R54TtDFz9-10">
            <mxGeometry x="470" y="170" width="120" height="40" as="geometry" />
          </mxCell>
        </object>
        <object label="Data Retrieval" element="process" sensitive="False" id="AXbqkbOZu55R54TtDFz9-21">
          <mxCell style="rounded=1;whiteSpace=wrap;html=1;arcSize=50;fillColor=#f8cecc;strokeColor=#b85450;" vertex="1" parent="AXbqkbOZu55R54TtDFz9-10">
            <mxGeometry x="470" y="50" width="120" height="40" as="geometry" />
          </mxCell>
        </object>
        <object label="Data Visualization" element="process" sensitive="False" id="AXbqkbOZu55R54TtDFz9-22">
          <mxCell style="rounded=1;whiteSpace=wrap;html=1;arcSize=50;fillColor=#f8cecc;strokeColor=#b85450;" vertex="1" parent="AXbqkbOZu55R54TtDFz9-10">
            <mxGeometry x="470" y="110" width="120" height="40" as="geometry" />
          </mxCell>
        </object>
        <object label="Process: &amp;lt;&lt;i&gt;custom_process&amp;gt;&lt;/i&gt;" element="process" sensitive="False" id="AXbqkbOZu55R54TtDFz9-23">
          <mxCell style="rounded=1;whiteSpace=wrap;html=1;arcSize=50;fillColor=#f8cecc;strokeColor=#b85450;" vertex="1" parent="AXbqkbOZu55R54TtDFz9-10">
            <mxGeometry x="470" y="230" width="120" height="40" as="geometry" />
          </mxCell>
        </object>
        <object label="Data Cleaning Details" element="system" sensitive="False" id="AXbqkbOZu55R54TtDFz9-27">
          <mxCell style="swimlane;whiteSpace=wrap;html=1;fillColor=#f5f5f5;fontColor=#333333;strokeColor=#666666;startSize=40;shadow=1;" vertex="1" parent="1">
            <mxGeometry x="2174" y="1215" width="140" height="250" as="geometry" />
          </mxCell>
        </object>
        <object label="Process:&lt;br&gt;Fill Nulls" element="process" sensitive="False" id="AXbqkbOZu55R54TtDFz9-24">
          <mxCell style="rounded=1;whiteSpace=wrap;html=1;arcSize=50;fillColor=#f8cecc;strokeColor=#b85450;" vertex="1" parent="AXbqkbOZu55R54TtDFz9-27">
            <mxGeometry x="10" y="50" width="120" height="40" as="geometry" />
          </mxCell>
        </object>
        <object label="Process:&lt;br&gt;Normalize Values" element="process" sensitive="False" id="AXbqkbOZu55R54TtDFz9-25">
          <mxCell style="rounded=1;whiteSpace=wrap;html=1;arcSize=50;fillColor=#f8cecc;strokeColor=#b85450;" vertex="1" parent="AXbqkbOZu55R54TtDFz9-27">
            <mxGeometry x="10" y="120" width="120" height="40" as="geometry" />
          </mxCell>
        </object>
        <object label="Process:&lt;br&gt;Encode Dummies" element="process" sensitive="False" id="AXbqkbOZu55R54TtDFz9-26">
          <mxCell style="rounded=1;whiteSpace=wrap;html=1;arcSize=50;fillColor=#f8cecc;strokeColor=#b85450;" vertex="1" parent="AXbqkbOZu55R54TtDFz9-27">
            <mxGeometry x="10" y="190" width="120" height="40" as="geometry" />
          </mxCell>
        </object>
        <object label="" element="info_attachement_connector" sensitive="False" id="AXbqkbOZu55R54TtDFz9-29">
          <mxCell style="endArrow=classic;html=1;rounded=0;strokeColor=#6c8ebf;fillColor=#dae8fc;" edge="1" parent="AXbqkbOZu55R54TtDFz9-27" source="AXbqkbOZu55R54TtDFz9-24" target="AXbqkbOZu55R54TtDFz9-25">
            <mxGeometry width="50" height="50" relative="1" as="geometry">
              <mxPoint x="-370" y="210" as="sourcePoint" />
              <mxPoint x="10" y="147" as="targetPoint" />
            </mxGeometry>
          </mxCell>
        </object>
        <object label="" element="info_attachement_connector" sensitive="False" id="AXbqkbOZu55R54TtDFz9-30">
          <mxCell style="endArrow=classic;html=1;rounded=0;strokeColor=#6c8ebf;fillColor=#dae8fc;" edge="1" parent="AXbqkbOZu55R54TtDFz9-27" source="AXbqkbOZu55R54TtDFz9-25" target="AXbqkbOZu55R54TtDFz9-26">
            <mxGeometry width="50" height="50" relative="1" as="geometry">
              <mxPoint x="-360" y="220" as="sourcePoint" />
              <mxPoint x="20" y="157" as="targetPoint" />
            </mxGeometry>
          </mxCell>
        </object>
        <object label="" element="info_attachement_connector" sensitive="False" id="AXbqkbOZu55R54TtDFz9-28">
          <mxCell style="endArrow=classic;html=1;rounded=0;strokeColor=#6c8ebf;fillColor=#dae8fc;" edge="1" parent="1" source="2UaHHBbGYBg2TLlhPL6S-15" target="AXbqkbOZu55R54TtDFz9-27">
            <mxGeometry width="50" height="50" relative="1" as="geometry">
              <mxPoint x="2124" y="1650" as="sourcePoint" />
              <mxPoint x="2184" y="1650" as="targetPoint" />
            </mxGeometry>
          </mxCell>
        </object>
        <object label="Properties" element="list" sensitive="False" id="AXbqkbOZu55R54TtDFz9-35">
          <mxCell style="swimlane;fontStyle=0;childLayout=stackLayout;horizontal=1;startSize=20;horizontalStack=0;resizeParent=1;resizeParentMax=0;resizeLast=0;collapsible=1;marginBottom=0;whiteSpace=wrap;html=1;treeFolding=1;shadow=1;" vertex="1" parent="1">
            <mxGeometry x="1691" y="1960" width="160" height="130" as="geometry" />
          </mxCell>
        </object>
        <mxCell id="AXbqkbOZu55R54TtDFz9-36" value="+ statisticalModel: Classifier" style="text;strokeColor=none;fillColor=none;align=left;verticalAlign=middle;spacingLeft=4;spacingRight=4;overflow=hidden;points=[[0,0.5],[1,0.5]];portConstraint=eastwest;rotatable=0;whiteSpace=wrap;html=1;" vertex="1" parent="AXbqkbOZu55R54TtDFz9-35">
          <mxGeometry y="20" width="160" height="30" as="geometry" />
        </mxCell>
        <mxCell id="AXbqkbOZu55R54TtDFz9-37" value="+ version: 1" style="text;strokeColor=none;fillColor=none;align=left;verticalAlign=middle;spacingLeft=4;spacingRight=4;overflow=hidden;points=[[0,0.5],[1,0.5]];portConstraint=eastwest;rotatable=0;whiteSpace=wrap;html=1;" vertex="1" parent="AXbqkbOZu55R54TtDFz9-35">
          <mxGeometry y="50" width="160" height="30" as="geometry" />
        </mxCell>
        <mxCell id="AXbqkbOZu55R54TtDFz9-40" value="+ mlTask: multi-label classification" style="text;strokeColor=none;fillColor=none;align=left;verticalAlign=middle;spacingLeft=4;spacingRight=4;overflow=hidden;points=[[0,0.5],[1,0.5]];portConstraint=eastwest;rotatable=0;whiteSpace=wrap;html=1;" vertex="1" parent="AXbqkbOZu55R54TtDFz9-35">
          <mxGeometry y="80" width="160" height="50" as="geometry" />
        </mxCell>
        <object label="" element="info_attachement_connector" sensitive="False" id="AXbqkbOZu55R54TtDFz9-41">
          <mxCell style="endArrow=classic;html=1;rounded=0;strokeColor=#6c8ebf;fillColor=#dae8fc;shadow=1;" edge="1" source="2UaHHBbGYBg2TLlhPL6S-23" target="AXbqkbOZu55R54TtDFz9-35" parent="1">
            <mxGeometry width="50" height="50" relative="1" as="geometry">
              <mxPoint x="1979" y="2150" as="sourcePoint" />
              <mxPoint x="2099" y="2070" as="targetPoint" />
              <Array as="points">
                <mxPoint x="1771" y="1700" />
              </Array>
            </mxGeometry>
          </mxCell>
        </object>
      </root>
    </mxGraphModel>
  </diagram>
</mxfile>
